<mxfile host="app.diagrams.net" modified="2023-07-25T19:54:23.686Z" agent="Mozilla/5.0 (Windows NT 10.0; Win64; x64) AppleWebKit/537.36 (KHTML, like Gecko) Chrome/114.0.0.0 Safari/537.36" etag="P9gBDjo--65PF2-TpbOE" version="21.6.5" type="device">
  <diagram name="Página-1" id="IkXHdDIOVWAJj3ZcM565">
    <mxGraphModel dx="1235" dy="578" grid="1" gridSize="10" guides="1" tooltips="1" connect="1" arrows="1" fold="1" page="1" pageScale="1" pageWidth="1169" pageHeight="1654" math="0" shadow="0">
      <root>
        <mxCell id="0" />
        <mxCell id="1" parent="0" />
        <mxCell id="wqehkEXqFk3J38QJZsBg-1" value="E-Commerce - SenaiShop&#xa;&#xa;&#xa;Uma Loja possui várias categorias&#xa;Uma categoria possui subcategorias&#xa;Um produto possui uma subcategoria&#xa;Um cliente efetua um pedido&#xa;Um pedido pode ter 1 ou vários produtos" style="text;whiteSpace=wrap;" parent="1" vertex="1">
          <mxGeometry x="150" y="10" width="250" height="140" as="geometry" />
        </mxCell>
        <mxCell id="XlDbOqVq7GyupWbmBvL0-4" style="edgeStyle=orthogonalEdgeStyle;rounded=0;orthogonalLoop=1;jettySize=auto;html=1;entryX=0.5;entryY=0;entryDx=0;entryDy=0;endArrow=none;endFill=0;" edge="1" parent="1" source="wqehkEXqFk3J38QJZsBg-2" target="wqehkEXqFk3J38QJZsBg-9">
          <mxGeometry relative="1" as="geometry" />
        </mxCell>
        <mxCell id="wqehkEXqFk3J38QJZsBg-2" value="loja" style="rounded=0;whiteSpace=wrap;html=1;" parent="1" vertex="1">
          <mxGeometry x="430" y="150" width="120" height="60" as="geometry" />
        </mxCell>
        <mxCell id="wqehkEXqFk3J38QJZsBg-3" value="cliente" style="rounded=0;whiteSpace=wrap;html=1;" parent="1" vertex="1">
          <mxGeometry x="800" y="670" width="120" height="60" as="geometry" />
        </mxCell>
        <mxCell id="XlDbOqVq7GyupWbmBvL0-13" style="edgeStyle=orthogonalEdgeStyle;rounded=0;orthogonalLoop=1;jettySize=auto;html=1;entryX=0.5;entryY=0;entryDx=0;entryDy=0;endArrow=none;endFill=0;" edge="1" parent="1" source="wqehkEXqFk3J38QJZsBg-4" target="wqehkEXqFk3J38QJZsBg-12">
          <mxGeometry relative="1" as="geometry" />
        </mxCell>
        <mxCell id="wqehkEXqFk3J38QJZsBg-4" value="pedido" style="rounded=0;whiteSpace=wrap;html=1;" parent="1" vertex="1">
          <mxGeometry x="800" y="420" width="120" height="60" as="geometry" />
        </mxCell>
        <mxCell id="XlDbOqVq7GyupWbmBvL0-6" style="edgeStyle=orthogonalEdgeStyle;rounded=0;orthogonalLoop=1;jettySize=auto;html=1;entryX=1;entryY=0.5;entryDx=0;entryDy=0;endArrow=none;endFill=0;" edge="1" parent="1" source="wqehkEXqFk3J38QJZsBg-5" target="wqehkEXqFk3J38QJZsBg-10">
          <mxGeometry relative="1" as="geometry" />
        </mxCell>
        <mxCell id="XlDbOqVq7GyupWbmBvL0-10" style="edgeStyle=orthogonalEdgeStyle;rounded=0;orthogonalLoop=1;jettySize=auto;html=1;entryX=0;entryY=0.5;entryDx=0;entryDy=0;endArrow=none;endFill=0;" edge="1" parent="1" source="wqehkEXqFk3J38QJZsBg-5" target="wqehkEXqFk3J38QJZsBg-11">
          <mxGeometry relative="1" as="geometry" />
        </mxCell>
        <mxCell id="wqehkEXqFk3J38QJZsBg-5" value="produtos" style="rounded=0;whiteSpace=wrap;html=1;" parent="1" vertex="1">
          <mxGeometry x="430" y="420" width="120" height="60" as="geometry" />
        </mxCell>
        <mxCell id="XlDbOqVq7GyupWbmBvL0-8" style="edgeStyle=orthogonalEdgeStyle;rounded=0;orthogonalLoop=1;jettySize=auto;html=1;entryX=0.5;entryY=0;entryDx=0;entryDy=0;endArrow=none;endFill=0;" edge="1" parent="1" source="wqehkEXqFk3J38QJZsBg-6" target="wqehkEXqFk3J38QJZsBg-13">
          <mxGeometry relative="1" as="geometry" />
        </mxCell>
        <mxCell id="wqehkEXqFk3J38QJZsBg-6" value="categorias" style="rounded=0;whiteSpace=wrap;html=1;" parent="1" vertex="1">
          <mxGeometry x="60" y="420" width="120" height="60" as="geometry" />
        </mxCell>
        <mxCell id="wqehkEXqFk3J38QJZsBg-7" value="subcategorias" style="rounded=0;whiteSpace=wrap;html=1;" parent="1" vertex="1">
          <mxGeometry x="60" y="670" width="120" height="60" as="geometry" />
        </mxCell>
        <mxCell id="XlDbOqVq7GyupWbmBvL0-5" style="edgeStyle=orthogonalEdgeStyle;rounded=0;orthogonalLoop=1;jettySize=auto;html=1;entryX=0.5;entryY=0;entryDx=0;entryDy=0;endArrow=none;endFill=0;" edge="1" parent="1" source="wqehkEXqFk3J38QJZsBg-9" target="wqehkEXqFk3J38QJZsBg-5">
          <mxGeometry relative="1" as="geometry" />
        </mxCell>
        <mxCell id="wqehkEXqFk3J38QJZsBg-9" value="possui" style="rhombus;whiteSpace=wrap;html=1;" parent="1" vertex="1">
          <mxGeometry x="450" y="270" width="80" height="80" as="geometry" />
        </mxCell>
        <mxCell id="XlDbOqVq7GyupWbmBvL0-7" style="edgeStyle=orthogonalEdgeStyle;rounded=0;orthogonalLoop=1;jettySize=auto;html=1;entryX=1;entryY=0.5;entryDx=0;entryDy=0;endArrow=none;endFill=0;" edge="1" parent="1" source="wqehkEXqFk3J38QJZsBg-10" target="wqehkEXqFk3J38QJZsBg-7">
          <mxGeometry relative="1" as="geometry" />
        </mxCell>
        <mxCell id="wqehkEXqFk3J38QJZsBg-10" value="possui" style="rhombus;whiteSpace=wrap;html=1;" parent="1" vertex="1">
          <mxGeometry x="270" y="660" width="80" height="80" as="geometry" />
        </mxCell>
        <mxCell id="XlDbOqVq7GyupWbmBvL0-11" style="edgeStyle=orthogonalEdgeStyle;rounded=0;orthogonalLoop=1;jettySize=auto;html=1;entryX=0;entryY=0.5;entryDx=0;entryDy=0;endArrow=none;endFill=0;" edge="1" parent="1" source="wqehkEXqFk3J38QJZsBg-11" target="wqehkEXqFk3J38QJZsBg-4">
          <mxGeometry relative="1" as="geometry" />
        </mxCell>
        <mxCell id="wqehkEXqFk3J38QJZsBg-11" value="possui" style="rhombus;whiteSpace=wrap;html=1;" parent="1" vertex="1">
          <mxGeometry x="650" y="410" width="80" height="80" as="geometry" />
        </mxCell>
        <mxCell id="XlDbOqVq7GyupWbmBvL0-14" style="edgeStyle=orthogonalEdgeStyle;rounded=0;orthogonalLoop=1;jettySize=auto;html=1;entryX=0.5;entryY=0;entryDx=0;entryDy=0;endArrow=none;endFill=0;" edge="1" parent="1" source="wqehkEXqFk3J38QJZsBg-12" target="wqehkEXqFk3J38QJZsBg-3">
          <mxGeometry relative="1" as="geometry" />
        </mxCell>
        <mxCell id="wqehkEXqFk3J38QJZsBg-12" value="faz" style="rhombus;whiteSpace=wrap;html=1;" parent="1" vertex="1">
          <mxGeometry x="820" y="540" width="80" height="80" as="geometry" />
        </mxCell>
        <mxCell id="XlDbOqVq7GyupWbmBvL0-9" style="edgeStyle=orthogonalEdgeStyle;rounded=0;orthogonalLoop=1;jettySize=auto;html=1;entryX=0.5;entryY=0;entryDx=0;entryDy=0;endArrow=none;endFill=0;" edge="1" parent="1" source="wqehkEXqFk3J38QJZsBg-13" target="wqehkEXqFk3J38QJZsBg-7">
          <mxGeometry relative="1" as="geometry" />
        </mxCell>
        <mxCell id="wqehkEXqFk3J38QJZsBg-13" value="contem" style="rhombus;whiteSpace=wrap;html=1;" parent="1" vertex="1">
          <mxGeometry x="80" y="540" width="80" height="80" as="geometry" />
        </mxCell>
        <mxCell id="XlDbOqVq7GyupWbmBvL0-17" value="1" style="text;html=1;align=center;verticalAlign=middle;resizable=0;points=[];autosize=1;strokeColor=none;fillColor=none;" vertex="1" parent="1">
          <mxGeometry x="490" y="210" width="30" height="30" as="geometry" />
        </mxCell>
        <mxCell id="XlDbOqVq7GyupWbmBvL0-18" value="N" style="text;html=1;align=center;verticalAlign=middle;resizable=0;points=[];autosize=1;strokeColor=none;fillColor=none;" vertex="1" parent="1">
          <mxGeometry x="490" y="390" width="30" height="30" as="geometry" />
        </mxCell>
        <mxCell id="XlDbOqVq7GyupWbmBvL0-19" value="N" style="text;html=1;align=center;verticalAlign=middle;resizable=0;points=[];autosize=1;strokeColor=none;fillColor=none;" vertex="1" parent="1">
          <mxGeometry x="400" y="450" width="30" height="30" as="geometry" />
        </mxCell>
        <mxCell id="XlDbOqVq7GyupWbmBvL0-20" value="1" style="text;html=1;align=center;verticalAlign=middle;resizable=0;points=[];autosize=1;strokeColor=none;fillColor=none;" vertex="1" parent="1">
          <mxGeometry x="180" y="700" width="30" height="30" as="geometry" />
        </mxCell>
        <mxCell id="XlDbOqVq7GyupWbmBvL0-21" value="1" style="text;html=1;align=center;verticalAlign=middle;resizable=0;points=[];autosize=1;strokeColor=none;fillColor=none;" vertex="1" parent="1">
          <mxGeometry x="120" y="480" width="30" height="30" as="geometry" />
        </mxCell>
        <mxCell id="XlDbOqVq7GyupWbmBvL0-22" value="N" style="text;html=1;align=center;verticalAlign=middle;resizable=0;points=[];autosize=1;strokeColor=none;fillColor=none;" vertex="1" parent="1">
          <mxGeometry x="120" y="640" width="30" height="30" as="geometry" />
        </mxCell>
        <mxCell id="XlDbOqVq7GyupWbmBvL0-23" value="N" style="text;html=1;align=center;verticalAlign=middle;resizable=0;points=[];autosize=1;strokeColor=none;fillColor=none;" vertex="1" parent="1">
          <mxGeometry x="550" y="420" width="30" height="30" as="geometry" />
        </mxCell>
        <mxCell id="XlDbOqVq7GyupWbmBvL0-24" value="1" style="text;html=1;align=center;verticalAlign=middle;resizable=0;points=[];autosize=1;strokeColor=none;fillColor=none;" vertex="1" parent="1">
          <mxGeometry x="770" y="420" width="30" height="30" as="geometry" />
        </mxCell>
        <mxCell id="XlDbOqVq7GyupWbmBvL0-25" value="1" style="text;html=1;align=center;verticalAlign=middle;resizable=0;points=[];autosize=1;strokeColor=none;fillColor=none;" vertex="1" parent="1">
          <mxGeometry x="860" y="480" width="30" height="30" as="geometry" />
        </mxCell>
        <mxCell id="XlDbOqVq7GyupWbmBvL0-26" value="N" style="text;html=1;align=center;verticalAlign=middle;resizable=0;points=[];autosize=1;strokeColor=none;fillColor=none;" vertex="1" parent="1">
          <mxGeometry x="860" y="640" width="30" height="30" as="geometry" />
        </mxCell>
      </root>
    </mxGraphModel>
  </diagram>
</mxfile>
